<svg viewBox="0 0 40.04 47.93" xmlns="http://www.w3.org/2000/svg"><rect fill="#e6c1ad" height="43.08" rx="2.43" width="35.19" x="4.85" y="4.85"/><path d="m27.2 43.08h-24.77a2.43 2.43 0 0 1 -2.43-2.43v-38.22a2.43 2.43 0 0 1 2.43-2.43h30.33a2.43 2.43 0 0 1 2.43 2.43v31.77" fill="#ff671d"/><path d="m27.2 43.08v-6.08a2.79 2.79 0 0 1 2.8-2.8h5.2z" fill="#a85522"/><g fill="#fff"><path d="m6.9 8.85h21.87v1.27h-21.87z"/><path d="m6.9 13.39h21.87v1.27h-21.87z"/><path d="m6.9 17.94h21.87v1.27h-21.87z"/><path d="m6.9 22.48h21.87v1.27h-21.87z"/><path d="m6.9 27.02h21.87v1.28h-21.87z"/><path d="m6.9 31.57h12.27v1.27h-12.27z"/></g></svg>