<?xml version="1.0" encoding="UTF-8" standalone="no"?>
<svg
   id="Layer_1"
   data-name="Layer 1"
   viewBox="0 0 60.146417 42.4"
   version="1.1"
   sodipodi:docname="new-csb-iowa-logo.svg"
   inkscape:version="1.4.4 (dcaf3e7d9e, 2026-05-05)"
   inkscape:export-filename="new-csb-logo.svg"
   inkscape:export-xdpi="96"
   inkscape:export-ydpi="96"
   width="60.146416"
   height="42.400002"
   xmlns:inkscape="http://www.inkscape.org/namespaces/inkscape"
   xmlns:sodipodi="http://sodipodi.sourceforge.net/DTD/sodipodi-0.dtd"
   xmlns="http://www.w3.org/2000/svg"
   xmlns:svg="http://www.w3.org/2000/svg">
  <sodipodi:namedview
     id="namedview23"
     pagecolor="#ffffff"
     bordercolor="#000000"
     borderopacity="0.25"
     inkscape:showpageshadow="2"
     inkscape:pageopacity="0.0"
     inkscape:pagecheckerboard="0"
     inkscape:deskcolor="#d1d1d1"
     inkscape:zoom="3.7978483"
     inkscape:cx="117.03996"
     inkscape:cy="21.196213"
     inkscape:window-width="2494"
     inkscape:window-height="1043"
     inkscape:window-x="2626"
     inkscape:window-y="0"
     inkscape:window-maximized="1"
     inkscape:current-layer="Layer_1"
     inkscape:export-bgcolor="#ffffff00" />
  <defs
     id="defs1">
    <style
       id="style1">.cls-1{fill:#666;}.cls-2{fill:#af192a;}.cls-3{fill:none;stroke:#666;stroke-linecap:round;stroke-width:0.58px;}</style>
  </defs>
  <path
     class="cls-1"
     d="m 31.12481,15.37 v -4.28 a 5,5 0 0 1 4.84,5 h 5.64 A 10.61,10.61 0 0 0 31.12481,5.44 V 0.28 h -0.2 v 5.16 a 10.61,10.61 0 0 0 0,21.22 v 4.3 a 5,5 0 0 1 -4.9,-5 h -5.64 a 10.61,10.61 0 0 0 10.54,10.64 v 5.2 h 0.2 v -5.2 a 10.61,10.61 0 0 0 0,-21.22 z m -5.1,0.67 a 5,5 0 0 1 4.9,-5 v 9.94 a 5,5 0 0 1 -4.9,-4.93 z m 5.1,14.9 v -9.91 a 5,5 0 0 1 0,9.92 z"
     id="path21" />
  <path
     class="cls-2"
     d="m 60.14481,14.89 a 9.2,9.2 0 0 0 -9.2,-9.2 h -7.6 v 5.68 h 7.6 a 3.56,3.56 0 0 1 0,7.12 h -7.6 v 5.65 h 7.6 a 3.56,3.56 0 1 1 0,7.12 h -7.6 v 5.64 h 7.6 a 9.2,9.2 0 0 0 6.63,-15.58 9.21,9.21 0 0 0 2.57,-6.43 z"
     id="path22" />
  <path
     class="cls-2"
     d="m 15.98481,11.37 h 3.47 V 5.69 h -3.47 a 15.59,15.59 0 1 0 0,31.17 h 3.47 v -5.64 h -3.47 a 9.95,9.95 0 0 1 0,-19.89 z"
     id="path23" />
  <line
     class="cls-3"
     x1="31.00481"
     y1="42.110001"
     x2="31.00481"
     y2="0.28999999"
     id="line23" />
</svg>
